<svg id="图层_1" data-name="图层 1" xmlns="http://www.w3.org/2000/svg" viewBox="0 0 533 417"><title>后台图标</title><path d="M186.35,9.4C88.42,9.4,9,43.48,9,85.52v27.41h0c1.44,41.51,80.26,75,177.29,75s175.85-33.46,177.29-75h0V85.52C363.68,43.48,284.29,9.4,186.35,9.4Z"/><path d="M292.52,344.32c-29.6,9.52-66.35,15.16-106.17,15.16-86.43,0-158.41-26.55-174.12-61.69A35.12,35.12,0,0,0,9,312.22v27.42h0c1.44,41.51,80.26,75,177.29,75,54.37,0,103-10.51,135.54-27.05A115.09,115.09,0,0,1,292.52,344.32Z"/><path d="M284.87,303a115.09,115.09,0,0,1,4.44-31.75c-29,8.9-64.56,14.14-103,14.14-86.43,0-158.41-26.55-174.12-61.69A35.17,35.17,0,0,0,9,238.14v27.41h0c1.44,41.51,80.26,75,177.29,75,37.55,0,72.36-5,101-13.56A116,116,0,0,1,284.87,303Z"/><path d="M363.42,193.83c.11-.91.19-1.81.22-2.73h0V163.69a35.13,35.13,0,0,0-3.2-14.44c-15.71,35.14-87.69,61.69-174.13,61.69S27.94,184.39,12.23,149.25A35.13,35.13,0,0,0,9,163.69V191.1h0c1.44,41.51,80.26,75,177.29,75,42.47,0,81.44-6.41,112-17.1A115.44,115.44,0,0,1,363.42,193.83Z"/><path d="M408.36,193.27A110.67,110.67,0,1,0,519,303.94,110.67,110.67,0,0,0,408.36,193.27Zm72.49,86.28-68.12,75.58-11.17,12.39a7.11,7.11,0,0,1-10,.53L346.86,327.8a11.9,11.9,0,0,1,15.93-17.67l27,24.32a7.11,7.11,0,0,0,10-.52l63.36-70.31a11.9,11.9,0,0,1,17.67,15.93Z"/></svg>