<svg id="图层_1" data-name="图层 1" xmlns="http://www.w3.org/2000/svg" viewBox="0 0 533 417"><title>后台图标</title><path d="M160.8,232.55a31.83,31.83,0,0,0-12.21,9.12c-7.17,8.91-14.08,26.37,13.19,48.23,0,0,53.16,35.75,112.74-39.42C274.52,250.48,209.54,211.33,160.8,232.55Z"/><path d="M431,329.31l-128-63.55c-49.5,55.61-105.41,52.55-105.41,52.55-56.14-6.41-65.45-38.18-66.6-53.66a34.66,34.66,0,0,1,2.19-14.78c15.2-40,58.45-40.78,58.45-40.78,37.12-6.72,97.16,18.17,97.16,18.17,8.71-10.08,17.87-49.49,17.87-49.49H184.24V164.93h61.87V138.81H172.32V125.52h73.79V92.63h37.12v32.89h81.58v13.29H283.23v26.12h66.46c-4.13,26.13-27.5,73.79-27.5,73.79l131.64,50.74a202.44,202.44,0,0,0,15.77-78.57c0-112.11-90.89-203-203-203s-203,90.88-203,203,90.89,203,203,203a202.69,202.69,0,0,0,164.93-84.64Z"/></svg>